<?xml version="1.0" standalone="no"?><svg xmlns="http://www.w3.org/2000/svg" viewBox="0 0 1440 320"><path fill="#E6E5E3" fill-opacity="1" d="M0,256L21.8,240C43.6,224,87,192,131,186.7C174.5,181,218,203,262,208C305.5,213,349,203,393,192C436.4,181,480,171,524,144C567.3,117,611,75,655,53.3C698.2,32,742,32,785,69.3C829.1,107,873,181,916,197.3C960,213,1004,171,1047,144C1090.9,117,1135,107,1178,133.3C1221.8,160,1265,224,1309,234.7C1352.7,245,1396,203,1418,181.3L1440,160L1440,0L1418.2,0C1396.4,0,1353,0,1309,0C1265.5,0,1222,0,1178,0C1134.5,0,1091,0,1047,0C1003.6,0,960,0,916,0C872.7,0,829,0,785,0C741.8,0,698,0,655,0C610.9,0,567,0,524,0C480,0,436,0,393,0C349.1,0,305,0,262,0C218.2,0,175,0,131,0C87.3,0,44,0,22,0L0,0Z"></path></svg>